<svg xmlns="http://www.w3.org/2000/svg" viewBox="0 0 200 220">
  <defs>
    <linearGradient id="logo-grad-top-left" x1="0%" y1="0%" x2="100%" y2="100%">
      <stop offset="0%" stop-color="#5ec2f6" />
      <stop offset="100%" stop-color="#2a86c7" />
    </linearGradient>
    <linearGradient id="logo-grad-top-right" x1="0%" y1="0%" x2="100%" y2="100%">
      <stop offset="0%" stop-color="#3ba8e8" />
      <stop offset="100%" stop-color="#1e6091" />
    </linearGradient>
    <linearGradient id="logo-grad-right" x1="0%" y1="0%" x2="100%" y2="100%">
      <stop offset="0%" stop-color="#a3e635" />
      <stop offset="100%" stop-color="#65a30d" />
    </linearGradient>
    <linearGradient id="logo-grad-bottom-right" x1="0%" y1="0%" x2="100%" y2="100%">
      <stop offset="0%" stop-color="#10b981" />
      <stop offset="100%" stop-color="#047857" />
    </linearGradient>
    <linearGradient id="logo-grad-bottom-left" x1="0%" y1="0%" x2="100%" y2="100%">
      <stop offset="0%" stop-color="#f97316" />
      <stop offset="100%" stop-color="#b91c1c" />
    </linearGradient>
    <linearGradient id="logo-grad-left" x1="0%" y1="0%" x2="100%" y2="100%">
      <stop offset="0%" stop-color="#facc15" />
      <stop offset="100%" stop-color="#ea580c" />
    </linearGradient>
    <linearGradient id="logo-grad-u-shape" x1="0%" y1="0%" x2="0%" y2="100%">
      <stop offset="0%" stop-color="#0ea5e9" />
      <stop offset="100%" stop-color="#0284c7" />
    </linearGradient>
  </defs>
  <path d="M 48,108 L 100,138 L 152,108 L 152,150 A 52,52 0 0,1 48,150 Z" fill="url(#logo-grad-u-shape)" />
  <path d="M 100,10 L 48,40 L 90,53 Z" fill="url(#logo-grad-top-left)" />
  <path d="M 100,10 L 110,53 L 152,40 Z" fill="url(#logo-grad-top-right)" />
  <path d="M 152,40 L 120,70 L 152,100 Z" fill="url(#logo-grad-right)" />
  <path d="M 152,100 L 110,87 L 100,130 Z" fill="url(#logo-grad-bottom-right)" />
  <path d="M 100,130 L 90,87 L 48,100 Z" fill="url(#logo-grad-bottom-left)" />
  <path d="M 48,100 L 80,70 L 48,40 Z" fill="url(#logo-grad-left)" />
</svg>
